<svg width="1440" height="735" xmlns="http://www.w3.org/2000/svg"><g><path d="M-95.83489318843931,-50.40833189152181L-139.9738375423476,516.873563202098L-91.4831147575751,191.81339777540416Z" fill="#d8f3fe" stroke="#d8f3fe"></path><path d="M-95.83489318843931,-50.40833189152181L-91.4831147575751,191.81339777540416L72.46384610421956,135.41075556539Z" fill="#e5f4fc" stroke="#e5f4fc"></path><path d="M-95.83489318843931,-50.40833189152181L72.46384610421956,135.41075556539L163.53481905534863,-104.75226284470409Z" fill="#ecf4fa" stroke="#ecf4fa"></path><path d="M163.53481905534863,-104.75226284470409L72.46384610421956,135.41075556539L256.14952601026744,-78.33972241729498Z" fill="#e4f0f7" stroke="#e4f0f7"></path><path d="M163.53481905534863,-104.75226284470409L256.14952601026744,-78.33972241729498L658.4734909422696,-127.25937430281192Z" fill="#d7e9f3" stroke="#d7e9f3"></path><path d="M163.53481905534863,-104.75226284470409L658.4734909422696,-127.25937430281192L1070.331193730235,-168.491654638201Z" fill="#bed9eb" stroke="#bed9eb"></path><path d="M256.14952601026744,-78.33972241729498L72.46384610421956,135.41075556539L347.4430472915992,123.17916341591626Z" fill="#d8ecf6" stroke="#d8ecf6"></path><path d="M256.14952601026744,-78.33972241729498L347.4430472915992,123.17916341591626L611.324375369586,42.554774400778115Z" fill="#d0e6f2" stroke="#d0e6f2"></path><path d="M256.14952601026744,-78.33972241729498L611.324375369586,42.554774400778115L658.4734909422696,-127.25937430281192Z" fill="#cbe3ef" stroke="#cbe3ef"></path><path d="M658.4734909422696,-127.25937430281192L611.324375369586,42.554774400778115L732.8257719334215,-81.29797424189746Z" fill="#b9d7e9" stroke="#b9d7e9"></path><path d="M658.4734909422696,-127.25937430281192L732.8257719334215,-81.29797424189746L1070.331193730235,-168.491654638201Z" fill="#a8cbe3" stroke="#a8cbe3"></path><path d="M732.8257719334215,-81.29797424189746L611.324375369586,42.554774400778115L743.6058021429926,200.97118023782969Z" fill="#afd3e8" stroke="#afd3e8"></path><path d="M732.8257719334215,-81.29797424189746L743.6058021429926,200.97118023782969L946.7480270890519,133.82076993118972Z" fill="#9ecae4" stroke="#9ecae4"></path><path d="M732.8257719334215,-81.29797424189746L946.7480270890519,133.82076993118972L1070.331193730235,-168.491654638201Z" fill="#9dc4e0" stroke="#9dc4e0"></path><path d="M1070.331193730235,-168.491654638201L946.7480270890519,133.82076993118972L1175.6747567420825,111.47457596845925Z" fill="#89b8da" stroke="#89b8da"></path><path d="M1070.331193730235,-168.491654638201L1175.6747567420825,111.47457596845925L1232.7437186799943,-66.32568051107228Z" fill="#82b2d7" stroke="#82b2d7"></path><path d="M1070.331193730235,-168.491654638201L1232.7437186799943,-66.32568051107228L1686.0504565620795,-116.6131777735427Z" fill="#80a5d0" stroke="#80a5d0"></path><path d="M1232.7437186799943,-66.32568051107228L1175.6747567420825,111.47457596845925L1493.4190490096807,30.65395297948271Z" fill="#7ca7d1" stroke="#7ca7d1"></path><path d="M1232.7437186799943,-66.32568051107228L1493.4190490096807,30.65395297948271L1517.847818764858,-30.109311705455184Z" fill="#809fcd" stroke="#809fcd"></path><path d="M1232.7437186799943,-66.32568051107228L1517.847818764858,-30.109311705455184L1686.0504565620795,-116.6131777735427Z" fill="#809acb" stroke="#809acb"></path><path d="M1517.847818764858,-30.109311705455184L1493.4190490096807,30.65395297948271L1807.1623190911487,69.18578100390732Z" fill="#7d90c6" stroke="#7d90c6"></path><path d="M1517.847818764858,-30.109311705455184L1807.1623190911487,69.18578100390732L1686.0504565620795,-116.6131777735427Z" fill="#808bc4" stroke="#808bc4"></path><path d="M-91.4831147575751,191.81339777540416L-139.9738375423476,516.873563202098L-77.91896135546267,379.28166416008025Z" fill="#b5ddf7" stroke="#b5ddf7"></path><path d="M-91.4831147575751,191.81339777540416L-77.91896135546267,379.28166416008025L72.46384610421956,135.41075556539Z" fill="#d1f0fc" stroke="#d1f0fc"></path><path d="M72.46384610421956,135.41075556539L-77.91896135546267,379.28166416008025L150.52203122526407,384.8512453213334Z" fill="#bce3f7" stroke="#bce3f7"></path><path d="M72.46384610421956,135.41075556539L150.52203122526407,384.8512453213334L347.4430472915992,123.17916341591626Z" fill="#c5e9f7" stroke="#c5e9f7"></path><path d="M347.4430472915992,123.17916341591626L150.52203122526407,384.8512453213334L281.9471033429727,388.55449239257723Z" fill="#addcf2" stroke="#addcf2"></path><path d="M347.4430472915992,123.17916341591626L281.9471033429727,388.55449239257723L638.2828974630684,400.51736319903284Z" fill="#a2d5ee" stroke="#a2d5ee"></path><path d="M347.4430472915992,123.17916341591626L638.2828974630684,400.51736319903284L611.324375369586,42.554774400778115Z" fill="#afdbee" stroke="#afdbee"></path><path d="M611.324375369586,42.554774400778115L638.2828974630684,400.51736319903284L743.6058021429926,200.97118023782969Z" fill="#9cd1e9" stroke="#9cd1e9"></path><path d="M743.6058021429926,200.97118023782969L638.2828974630684,400.51736319903284L823.7136564590037,318.415845008567Z" fill="#80c0e3" stroke="#80c0e3"></path><path d="M743.6058021429926,200.97118023782969L823.7136564590037,318.415845008567L946.7480270890519,133.82076993118972Z" fill="#88c4e3" stroke="#88c4e3"></path><path d="M946.7480270890519,133.82076993118972L823.7136564590037,318.415845008567L1112.8198630968109,347.5990942725912Z" fill="#71b6dd" stroke="#71b6dd"></path><path d="M946.7480270890519,133.82076993118972L1112.8198630968109,347.5990942725912L1175.6747567420825,111.47457596845925Z" fill="#70b2da" stroke="#70b2da"></path><path d="M1175.6747567420825,111.47457596845925L1112.8198630968109,347.5990942725912L1269.9181666364893,387.86477751564234Z" fill="#54a2d3" stroke="#54a2d3"></path><path d="M1175.6747567420825,111.47457596845925L1269.9181666364893,387.86477751564234L1493.4190490096807,30.65395297948271Z" fill="#68a1d1" stroke="#68a1d1"></path><path d="M1493.4190490096807,30.65395297948271L1269.9181666364893,387.86477751564234L1579.971480621025,377.27993006352335Z" fill="#5992cb" stroke="#5992cb"></path><path d="M1493.4190490096807,30.65395297948271L1579.971480621025,377.27993006352335L1726.6111886221915,269.4352737860754Z" fill="#618ac6" stroke="#618ac6"></path><path d="M1493.4190490096807,30.65395297948271L1726.6111886221915,269.4352737860754L1807.1623190911487,69.18578100390732Z" fill="#6f88c3" stroke="#6f88c3"></path><path d="M1807.1623190911487,69.18578100390732L1726.6111886221915,269.4352737860754L1710.410799519159,825.6894250959158Z" fill="#3866b8" stroke="#3866b8"></path><path d="M1807.1623190911487,69.18578100390732L1710.410799519159,825.6894250959158L1747.5844983849674,992.4248543288559Z" fill="#003ba9" stroke="#003ba9"></path><path d="M-77.91896135546267,379.28166416008025L-139.9738375423476,516.873563202098L128.08984803035855,511.10590698197484Z" fill="#94c8ee" stroke="#94c8ee"></path><path d="M-77.91896135546267,379.28166416008025L128.08984803035855,511.10590698197484L150.52203122526407,384.8512453213334Z" fill="#99ccef" stroke="#99ccef"></path><path d="M150.52203122526407,384.8512453213334L128.08984803035855,511.10590698197484L273.28443533275276,515.7481967704371Z" fill="#85c0e9" stroke="#85c0e9"></path><path d="M150.52203122526407,384.8512453213334L273.28443533275276,515.7481967704371L281.9471033429727,388.55449239257723Z" fill="#8dc6ea" stroke="#8dc6ea"></path><path d="M281.9471033429727,388.55449239257723L273.28443533275276,515.7481967704371L568.0435019498691,536.6259864065796Z" fill="#76b8e4" stroke="#76b8e4"></path><path d="M281.9471033429727,388.55449239257723L568.0435019498691,536.6259864065796L638.2828974630684,400.51736319903284Z" fill="#77bae4" stroke="#77bae4"></path><path d="M638.2828974630684,400.51736319903284L568.0435019498691,536.6259864065796L877.3183014988899,487.1607548510656Z" fill="#58a5da" stroke="#58a5da"></path><path d="M638.2828974630684,400.51736319903284L877.3183014988899,487.1607548510656L823.7136564590037,318.415845008567Z" fill="#62acdc" stroke="#62acdc"></path><path d="M823.7136564590037,318.415845008567L877.3183014988899,487.1607548510656L1112.8198630968109,347.5990942725912Z" fill="#54a3d7" stroke="#54a3d7"></path><path d="M1112.8198630968109,347.5990942725912L877.3183014988899,487.1607548510656L1018.2570242369547,627.7670862153172Z" fill="#318cce" stroke="#318cce"></path><path d="M1112.8198630968109,347.5990942725912L1018.2570242369547,627.7670862153172L1192.729369988665,490.24153128266335Z" fill="#2584ca" stroke="#2584ca"></path><path d="M1112.8198630968109,347.5990942725912L1192.729369988665,490.24153128266335L1269.9181666364893,387.86477751564234Z" fill="#338ccc" stroke="#338ccc"></path><path d="M1269.9181666364893,387.86477751564234L1192.729369988665,490.24153128266335L1409.2085441527888,514.9281063349918Z" fill="#247ac4" stroke="#247ac4"></path><path d="M1269.9181666364893,387.86477751564234L1409.2085441527888,514.9281063349918L1579.971480621025,377.27993006352335Z" fill="#2e77c2" stroke="#2e77c2"></path><path d="M1579.971480621025,377.27993006352335L1409.2085441527888,514.9281063349918L1647.8190561477095,542.1107031451538Z" fill="#2065ba" stroke="#2065ba"></path><path d="M1579.971480621025,377.27993006352335L1647.8190561477095,542.1107031451538L1726.6111886221915,269.4352737860754Z" fill="#366bbb" stroke="#366bbb"></path><path d="M1726.6111886221915,269.4352737860754L1647.8190561477095,542.1107031451538L1710.410799519159,825.6894250959158Z" fill="#0e4eb0" stroke="#0e4eb0"></path><path d="M-139.9738375423476,516.873563202098L-96.23995050322264,886.9675059337169L128.08984803035855,511.10590698197484Z" fill="#72aae4" stroke="#72aae4"></path><path d="M128.08984803035855,511.10590698197484L-96.23995050322264,886.9675059337169L134.56641829572618,864.1620927257463Z" fill="#6c93db" stroke="#6c93db"></path><path d="M128.08984803035855,511.10590698197484L134.56641829572618,864.1620927257463L351.39079498127103,764.5599540602416Z" fill="#6295da" stroke="#6295da"></path><path d="M128.08984803035855,511.10590698197484L351.39079498127103,764.5599540602416L273.28443533275276,515.7481967704371Z" fill="#5fa8e0" stroke="#5fa8e0"></path><path d="M273.28443533275276,515.7481967704371L351.39079498127103,764.5599540602416L568.0435019498691,536.6259864065796Z" fill="#55a1dc" stroke="#55a1dc"></path><path d="M568.0435019498691,536.6259864065796L351.39079498127103,764.5599540602416L529.4447506312281,845.5956929782405Z" fill="#4f8bd3" stroke="#4f8bd3"></path><path d="M568.0435019498691,536.6259864065796L529.4447506312281,845.5956929782405L820.368678374216,844.9159450642765Z" fill="#3d7acc" stroke="#3d7acc"></path><path d="M568.0435019498691,536.6259864065796L820.368678374216,844.9159450642765L877.3183014988899,487.1607548510656Z" fill="#3087cf" stroke="#3087cf"></path><path d="M877.3183014988899,487.1607548510656L820.368678374216,844.9159450642765L1018.2570242369547,627.7670862153172Z" fill="#1f76c7" stroke="#1f76c7"></path><path d="M1018.2570242369547,627.7670862153172L820.368678374216,844.9159450642765L1040.6580630876124,729.108551600948Z" fill="#1964c0" stroke="#1964c0"></path><path d="M1018.2570242369547,627.7670862153172L1040.6580630876124,729.108551600948L1192.729369988665,490.24153128266335Z" fill="#0b6fc3" stroke="#0b6fc3"></path><path d="M1192.729369988665,490.24153128266335L1040.6580630876124,729.108551600948L1208.7490891804919,882.4970094533637Z" fill="#035cbb" stroke="#035cbb"></path><path d="M1192.729369988665,490.24153128266335L1208.7490891804919,882.4970094533637L1409.2085441527888,514.9281063349918Z" fill="#005fbb" stroke="#005fbb"></path><path d="M1409.2085441527888,514.9281063349918L1208.7490891804919,882.4970094533637L1507.1095325704664,861.6995700402185Z" fill="#0042b0" stroke="#0042b0"></path><path d="M1409.2085441527888,514.9281063349918L1507.1095325704664,861.6995700402185L1647.8190561477095,542.1107031451538Z" fill="#004ab1" stroke="#004ab1"></path><path d="M1647.8190561477095,542.1107031451538L1507.1095325704664,861.6995700402185L1710.410799519159,825.6894250959158Z" fill="#0031a7" stroke="#0031a7"></path><path d="M-96.23995050322264,886.9675059337169L-75.7484298106283,1006.7649476230145L45.19508253317326,946.5559513773769Z" fill="#7277d1" stroke="#7277d1"></path><path d="M-96.23995050322264,886.9675059337169L45.19508253317326,946.5559513773769L134.56641829572618,864.1620927257463Z" fill="#6d7ad3" stroke="#6d7ad3"></path><path d="M134.56641829572618,864.1620927257463L45.19508253317326,946.5559513773769L407.20544965937734,999.9025401240215Z" fill="#626fcc" stroke="#626fcc"></path><path d="M134.56641829572618,864.1620927257463L407.20544965937734,999.9025401240215L351.39079498127103,764.5599540602416Z" fill="#5b75ce" stroke="#5b75ce"></path><path d="M351.39079498127103,764.5599540602416L407.20544965937734,999.9025401240215L529.4447506312281,845.5956929782405Z" fill="#5372cb" stroke="#5372cb"></path><path d="M529.4447506312281,845.5956929782405L407.20544965937734,999.9025401240215L601.2363714724779,1108.8864042889327Z" fill="#4c63c2" stroke="#4c63c2"></path><path d="M529.4447506312281,845.5956929782405L601.2363714724779,1108.8864042889327L772.6907548587769,1065.6122942268848Z" fill="#3e5abc" stroke="#3e5abc"></path><path d="M529.4447506312281,845.5956929782405L772.6907548587769,1065.6122942268848L820.368678374216,844.9159450642765Z" fill="#3557bf" stroke="#3557bf"></path><path d="M820.368678374216,844.9159450642765L772.6907548587769,1065.6122942268848L959.6170832170174,1090.5403394205496Z" fill="#2549b4" stroke="#2549b4"></path><path d="M820.368678374216,844.9159450642765L959.6170832170174,1090.5403394205496L1040.6580630876124,729.108551600948Z" fill="#1b4ab7" stroke="#1b4ab7"></path><path d="M1040.6580630876124,729.108551600948L959.6170832170174,1090.5403394205496L1208.7490891804919,882.4970094533637Z" fill="#0c3fb2" stroke="#0c3fb2"></path><path d="M1208.7490891804919,882.4970094533637L959.6170832170174,1090.5403394205496L1286.5568354399875,1113.3060429012403Z" fill="#0333a7" stroke="#0333a7"></path><path d="M1208.7490891804919,882.4970094533637L1286.5568354399875,1113.3060429012403L1507.1095325704664,861.6995700402185Z" fill="#0025a5" stroke="#0025a5"></path><path d="M1507.1095325704664,861.6995700402185L1286.5568354399875,1113.3060429012403L1574.351074239239,1121.7253755033016Z" fill="#001c9c" stroke="#001c9c"></path><path d="M1507.1095325704664,861.6995700402185L1574.351074239239,1121.7253755033016L1747.5844983849674,992.4248543288559Z" fill="#001198" stroke="#001198"></path><path d="M1507.1095325704664,861.6995700402185L1747.5844983849674,992.4248543288559L1710.410799519159,825.6894250959158Z" fill="#00149d" stroke="#00149d"></path><path d="M-75.7484298106283,1006.7649476230145L601.2363714724779,1108.8864042889327L407.20544965937734,999.9025401240215Z" fill="#5b6bc4" stroke="#5b6bc4"></path><path d="M-75.7484298106283,1006.7649476230145L407.20544965937734,999.9025401240215L45.19508253317326,946.5559513773769Z" fill="#6771cb" stroke="#6771cb"></path><path d="M601.2363714724779,1108.8864042889327L1574.351074239239,1121.7253755033016L1286.5568354399875,1113.3060429012403Z" fill="#0333a2" stroke="#0333a2"></path><path d="M601.2363714724779,1108.8864042889327L1286.5568354399875,1113.3060429012403L959.6170832170174,1090.5403394205496Z" fill="#1a42aa" stroke="#1a42aa"></path><path d="M601.2363714724779,1108.8864042889327L959.6170832170174,1090.5403394205496L772.6907548587769,1065.6122942268848Z" fill="#2d4fb2" stroke="#2d4fb2"></path></g></svg>